<?xml version="1.0" encoding="utf-8"?>
<!-- Generator: Adobe Illustrator 26.5.0, SVG Export Plug-In . SVG Version: 6.00 Build 0)  -->
<svg version="1.0" xmlns="http://www.w3.org/2000/svg" xmlns:xlink="http://www.w3.org/1999/xlink" x="0px" y="0px"
	 viewBox="0 0 601.52 117.46" style="enable-background:new 0 0 601.52 117.46;" xml:space="preserve">
<style type="text/css">
	.st0{fill:none;}
	.st1{fill:#FFFFFF;}
	.st2{display:none;fill:#004B8D;}
	.st3{fill:#FFCF01;}
	.st4{fill:#8B9DC7;}
	.st5{fill:#004B8D;}
	.st6{fill:#4B6EA7;}
</style>
<g id="non_printing_box">
	<rect x="21.45" y="0.44" class="st0" width="487.37" height="100.13"/>
</g>
<g id="Medicine_24pt_kern_633">
	<g>
		<path class="st1" d="M259.33,109.91h-5.21V97.27l-5.55,6.67h-0.76l-5.55-6.67v12.64h-5.21V89.24h4.58l6.55,7.85l6.64-7.85h4.52
			V109.91z"/>
		<path class="st1" d="M294.74,109.91h-15.25V89.24h15.04v3.85h-9.82v4.18h9.37v3.88h-9.37v4.97h10.03V109.91z"/>
		<path class="st1" d="M322.66,89.24c1.33,0,3.24,0,5.61,0.82c1.64,0.58,6.61,3.09,6.61,9.49c0,2.06-0.51,6.37-5.03,8.82
			c-1.97,1.06-3.97,1.55-7.58,1.55h-8.03V89.24H322.66z M319.45,93.18v12.79h2.09c2.88,0,3.7-0.24,4.55-0.61
			c2.09-0.91,3.46-2.91,3.46-5.85c0-2.24-0.82-4.7-3.49-5.79c-1.33-0.55-2.61-0.55-4-0.55H319.45z"/>
		<path class="st1" d="M359.28,109.91h-5.22V89.24h5.22V109.91z"/>
		<path class="st1" d="M398.36,108.13c-3.03,1.61-5.49,2.06-8.13,2.06c-8.03,0-12.04-5.25-12.04-10.55
			c0-5.21,4.09-10.67,12.49-10.67c3.76,0,6.37,1.18,7.43,1.82v4.76c-0.85-0.64-3.49-2.24-7.06-2.24c-4.31,0-7.49,2.49-7.49,6.28
			c0,4.06,3.46,6.34,7.34,6.34c1.94,0,3.76-0.55,5.49-1.42l1.97-1.12V108.13z"/>
		<path class="st1" d="M423.22,109.91H418V89.24h5.21V109.91z"/>
		<path class="st1" d="M464.23,109.91h-4.31L448.5,97.12v12.79h-5.12V89.24h4.7l11.07,12.19V89.24h5.09V109.91z"/>
		<path class="st1" d="M499.64,109.91h-15.25V89.24h15.04v3.85h-9.82v4.18h9.37v3.88h-9.37v4.97h10.03V109.91z"/>
	</g>
</g>
<g id="Johns_Hopkins__x2B_0.75_stroke_18_track">
	<rect x="-59.24" y="-179.55" class="st2" width="720" height="504"/>
	<g>
		<g>
			<path class="st1" d="M136.77,82.36c-3.92,0-5.3-2.73-5.3-5.06c0-2.42,1.5-4.04,3.72-4.04c2.52,0,3.1,1.9,3.53,3.28
				c0.35,1.14,0.57,1.64,1.13,1.64c2.64,0,5.44-4.81,5.44-13.72V18.24c0-3.56-0.78-3.65-2.66-3.86l-0.84-0.09
				c-2.18-0.24-2.99-0.33-2.99-1.82c0-0.33,0.17-1.41,2.39-1.41c0.66,0,1.54,0.06,2.55,0.12c1.49,0.1,3.34,0.22,5.36,0.22
				c2.71,0,4.23-0.15,5.24-0.25c0.52-0.05,0.91-0.09,1.26-0.09c0.53,0,2.14,0,2.14,1.49c0,1.27-0.88,1.38-1.89,1.5
				c-0.5,0.06-1.12,0.13-1.89,0.32c-2.18,0.57-2.22,0.58-2.22,14.75v28.98C151.74,73.85,144.03,82.36,136.77,82.36z"/>
		</g>
		<g>
			<path class="st1" d="M179.58,66.89c-10.36,0-18.8-12.75-18.8-28.43c0-15.68,8.43-28.43,18.8-28.43c10.36,0,18.8,12.75,18.8,28.43
				C198.37,54.14,189.94,66.89,179.58,66.89z M179.58,13.02c-5.16,0-11.19,6.66-11.19,25.45c0,18.78,6.03,25.45,11.19,25.45
				c5.16,0,11.19-6.66,11.19-25.45C190.76,19.68,184.74,13.02,179.58,13.02z"/>
		</g>
		<g>
			<path class="st1" d="M240.79,65.87c-0.5,0-1.04-0.05-1.71-0.11c-1.05-0.1-2.36-0.23-4.28-0.23c-2.37,0-3.38,0.14-4.11,0.24
				c-0.43,0.06-0.77,0.1-1.22,0.1c-1.54,0-2.72-0.12-2.72-1.66c0-1.06,0.99-1.27,2.79-1.65c1.49-0.35,1.96-0.81,1.96-3.02V38.72
				c0-0.38-0.08-0.38-0.19-0.38h-17.16c-0.11,0-0.15,0.02-0.15,0.02c0,0.01-0.05,0.12-0.05,0.53v20.57c0,2.41,0.98,2.92,1.95,3.1
				l0.51,0.1c1.11,0.21,2.38,0.44,2.38,1.64c0,1.4-1.1,1.58-2.06,1.58c-0.46,0-0.76-0.04-1.14-0.09c-0.7-0.1-1.75-0.24-4.86-0.24
				c-2.98,0-4.16,0.14-5.02,0.24c-0.48,0.06-0.87,0.1-1.4,0.1c-1.14,0-1.72-0.59-1.72-1.75c0-0.56,0.38-1.24,1.45-1.48
				c3.33-0.73,3.46-1.25,3.46-3.36V16.88c0-2.11-0.34-2.36-0.9-2.52c-0.99-0.27-1.72-0.37-2.25-0.45c-0.97-0.14-1.68-0.25-1.68-1.36
				c0-1.34,1.22-1.49,2.14-1.49c0.51,0,1.25,0.06,2.11,0.13c1.17,0.1,2.49,0.21,3.72,0.21c1.33,0,2.51-0.11,3.56-0.2
				c0.85-0.08,1.59-0.14,2.27-0.14c1,0,2.14,0.17,2.14,1.49c0,1.44-1.04,1.58-2.25,1.74c-0.2,0.03-0.42,0.06-0.65,0.09
				c-1.24,0.17-1.76,0.71-1.76,1.83v18.36c0,0.46,0.07,0.46,0.28,0.46h17.07c0.13,0,0.17-0.02,0.17-0.02
				c-0.01-0.01,0.02-0.16,0.02-0.61v-17c0-2.39-0.42-2.85-1.44-3.02c-0.3-0.05-0.58-0.09-0.84-0.14c-1.53-0.24-2.63-0.41-2.63-1.61
				c0-1.58,1.8-1.58,2.39-1.58c0.72,0,1.35,0.06,2.07,0.13c0.99,0.1,2.12,0.21,3.93,0.21c2.51,0,3.7-0.13,4.57-0.23
				c0.54-0.06,1-0.11,1.6-0.11c1.42,0,1.72,0.67,1.72,1.24c0,1.59-2.15,1.89-3.57,2.08c-0.8,0.13-1.34,0.59-1.34,1.15v43.93
				c0,1.76,0.37,2.78,1.14,3.14c0.53,0.23,1.1,0.35,1.6,0.45c0.95,0.2,1.92,0.4,1.92,1.43C242.59,65.73,241.56,65.87,240.79,65.87z"
				/>
		</g>
		<g>
			<path class="st1" d="M279.51,67.4c-0.9,0-0.96-0.12-4.08-6.19c-1.82-3.53-4.86-9.44-9.83-18.79c-5.37-10.11-8.18-15.75-9.7-18.78
				c-1.08-2.17-1.68-3.37-1.89-3.49c-0.01,0.03-0.1,0.28-0.1,1.4v29.91c0,8.16,0.51,10.75,2.2,11.09c0.68,0.15,1.33,0.22,1.91,0.28
				c1.4,0.15,2.72,0.28,2.72,1.72c0,0.88-0.58,1.32-1.72,1.32c-0.34,0-0.59-0.04-0.94-0.09c-0.69-0.1-1.74-0.25-4.89-0.25
				c-2.64,0-4.05,0.14-5.09,0.24c-0.6,0.06-1.08,0.1-1.57,0.1c-0.87,0-1.39-0.49-1.39-1.32c0-1.12,1.6-1.46,2.89-1.73
				c0.4-0.08,0.78-0.16,1-0.24c1.16-0.43,1.61-1.69,1.61-4.48V18.58c0-3.04-0.35-4.02-1.52-4.21c-0.31-0.05-0.59-0.09-0.84-0.13
				c-1.44-0.21-2.39-0.35-2.39-1.7c0-0.68,0.4-1.49,2.31-1.49c0.9,0,2.13,0.05,3.28,0.09c0.98,0.04,1.89,0.08,2.47,0.08l1.69,0.09
				c1.25,0.09,1.75,1.23,2.38,2.68c0.18,0.41,0.37,0.86,0.6,1.32l11.91,23.28c4.4,8.6,6.4,12.4,7.08,13.38
				c0.01-0.12,0.02-0.28,0.02-0.5V20.19c0-5.07-1.18-5.64-2.5-5.82c-1.53-0.23-3.24-0.5-3.24-1.83c0-0.84,0.68-1.49,1.56-1.49
				c0.32,0,0.66,0.04,1.13,0.09c0.88,0.1,2.22,0.25,4.7,0.25c0.93,0,1.82-0.09,2.68-0.18c0.83-0.08,1.62-0.16,2.4-0.16
				c1.08,0,1.81,0.25,1.81,1.49c0,1.31-1.03,1.47-2.58,1.72l-0.65,0.11c-1.53,0.27-2.02,1.25-2.02,4.04v46.06
				C280.9,66.84,280.9,67.4,279.51,67.4z"/>
		</g>
		<g>
			<path class="st1" d="M302.41,66.89c-5.88,0-8.95-1.54-10-2.2c-1.4-0.91-1.72-1.91-1.72-9.66c0-5.85,0.18-6.59,1.64-6.59
				c1.32,0,1.46,0.75,1.6,1.48l0.03,0.18c1.88,9.42,5.12,13.81,10.2,13.81c5.13,0,8.85-4.59,8.85-10.91
				c0-7.12-5.13-10.49-10.55-14.05c-5.62-3.69-11.43-7.51-11.43-15.78c0-7.24,6.56-13.14,14.63-13.14c3.63,0,8.34,1.51,9.5,2.69
				c0.63,0.65,0.63,0.94,0.63,8.4c0,4.68,0,5.06-1.31,5.06c-1.23,0-1.41-1.07-1.58-2.11c-0.07-0.41-0.15-0.88-0.29-1.38
				c-1.84-6.61-4.47-9.68-8.29-9.68c-3.92,0-7.36,3.59-7.36,7.68c0,7.03,4.99,10.13,10.27,13.42c5.76,3.59,11.72,7.3,11.72,16.32
				C318.96,60.28,312.31,66.89,302.41,66.89z"/>
		</g>
		<g>
			<path class="st1" d="M378.61,65.87c-0.5,0-1.04-0.05-1.71-0.11c-1.05-0.1-2.36-0.23-4.28-0.23c-2.37,0-3.38,0.14-4.12,0.24
				c-0.43,0.06-0.77,0.1-1.22,0.1c-1.54,0-2.72-0.12-2.72-1.66c0-1.06,0.99-1.27,2.79-1.65c1.49-0.35,1.96-0.81,1.96-3.02V38.72
				c0-0.38-0.08-0.38-0.19-0.38h-17.16c-0.11,0-0.15,0.02-0.15,0.02c0,0.01-0.04,0.12-0.04,0.53v20.57c0,2.41,0.98,2.92,1.95,3.1
				l0.51,0.1c1.12,0.21,2.38,0.44,2.38,1.64c0,1.4-1.1,1.58-2.06,1.58c-0.46,0-0.76-0.04-1.14-0.09c-0.7-0.1-1.75-0.24-4.86-0.24
				c-2.98,0-4.16,0.14-5.02,0.24c-0.48,0.06-0.87,0.1-1.4,0.1c-1.14,0-1.72-0.59-1.72-1.75c0-0.56,0.38-1.24,1.45-1.48
				c3.33-0.73,3.46-1.25,3.46-3.36V16.88c0-2.11-0.34-2.36-0.9-2.52c-0.99-0.27-1.72-0.37-2.25-0.45c-0.97-0.14-1.68-0.25-1.68-1.36
				c0-1.34,1.22-1.49,2.14-1.49c0.51,0,1.25,0.06,2.11,0.13c1.17,0.1,2.49,0.21,3.72,0.21c1.33,0,2.51-0.11,3.56-0.2
				c0.85-0.08,1.59-0.14,2.27-0.14c1,0,2.14,0.17,2.14,1.49c0,1.44-1.04,1.58-2.25,1.74c-0.2,0.03-0.42,0.06-0.65,0.09
				c-1.24,0.17-1.76,0.71-1.76,1.83v18.36c0,0.46,0.07,0.46,0.28,0.46h17.07c0.13,0,0.17-0.02,0.17-0.02
				c-0.01-0.01,0.02-0.16,0.02-0.61v-17c0-2.39-0.42-2.85-1.44-3.02c-0.3-0.05-0.58-0.09-0.84-0.13c-1.53-0.24-2.63-0.41-2.63-1.61
				c0-1.58,1.8-1.58,2.39-1.58c0.72,0,1.35,0.06,2.07,0.13c0.99,0.1,2.12,0.21,3.93,0.21c2.51,0,3.7-0.13,4.57-0.23
				c0.54-0.06,1-0.11,1.59-0.11c1.42,0,1.72,0.67,1.72,1.24c0,1.59-2.15,1.89-3.57,2.08c-0.8,0.13-1.34,0.59-1.34,1.15v43.93
				c0,1.76,0.37,2.78,1.14,3.14c0.53,0.23,1.1,0.35,1.6,0.45c0.94,0.2,1.92,0.4,1.92,1.43C380.42,65.73,379.39,65.87,378.61,65.87z"
				/>
		</g>
		<g>
			<path class="st1" d="M403.68,66.89c-10.36,0-18.8-12.75-18.8-28.43c0-15.68,8.43-28.43,18.8-28.43c10.36,0,18.8,12.75,18.8,28.43
				C422.47,54.14,414.04,66.89,403.68,66.89z M403.68,13.02c-5.16,0-11.19,6.66-11.19,25.45c0,18.78,6.03,25.45,11.19,25.45
				c5.16,0,11.19-6.66,11.19-25.45C414.86,19.68,408.84,13.02,403.68,13.02z"/>
		</g>
		<g>
			<path class="st1" d="M443.99,65.87c-0.44,0-0.9-0.04-1.51-0.09c-1.14-0.1-2.86-0.25-5.98-0.25c-3.34,0-4.84,0.16-5.73,0.26
				c-0.42,0.05-0.72,0.08-1.01,0.08c-0.72,0-2.22,0-2.22-1.32c0-1.54,1.25-1.69,3.75-2c0.98-0.11,1.58-0.65,1.58-3.01V17.98
				c0-3.14-0.9-3.5-1.83-3.61l-0.48-0.06c-2.2-0.29-3.02-0.39-3.02-1.68c0-1.06,0.59-1.58,1.81-1.58c1.27,0,2.48,0.09,3.66,0.18
				c1.08,0.08,2.1,0.16,3.09,0.16c1.54,0,3.19-0.09,4.79-0.17c1.58-0.08,3.21-0.17,4.71-0.17c9.65,0,15.88,6.22,15.88,15.85
				c0,8.36-6.54,14.67-15.22,14.67c-2.75,0-4.14-0.35-5.15-0.61c-0.56-0.14-0.97-0.24-1.42-0.24c-0.18,0-0.36,0-0.36,0.8v17.17
				c0,2.97,0.77,3.68,2.01,3.87c0.62,0.09,1.16,0.16,1.64,0.22c1.88,0.23,3.01,0.37,3.01,1.52
				C445.96,65.08,445.35,65.87,443.99,65.87z M443.4,14.04c-3.44,0-4.11,0.85-4.11,2.33v19.38c0,0.98,0.91,2.84,4.36,2.84
				c6.69,0,10.69-4.52,10.69-12.1C454.34,18.69,450.25,14.04,443.4,14.04z"/>
		</g>
		<g>
			<path class="st1" d="M501.28,65.87c-0.62,0-1.09-0.06-1.63-0.12c-0.84-0.1-1.88-0.22-4.03-0.22c-3.18,0-4.53,0.16-5.34,0.26
				c-0.37,0.05-0.64,0.08-0.9,0.08c-1.26,0-2.56-0.2-2.56-1.66c0-1.09,0.85-1.35,2.64-1.66c2.19-0.41,2.19-0.74,2.19-1.4
				c0-0.92-0.24-1.4-3.12-7.21l-0.66-1.33c-5.51-11.18-7.57-15.18-8.12-15.77c-0.59,0.3-2.31,2.4-2.31,3.15v18.1
				c0,3.9,0.3,4.12,2.63,4.64c1.47,0.33,2.12,0.65,2.12,1.65c0,1.38-1.29,1.49-2.72,1.49c-0.47,0-1.04-0.06-1.7-0.13
				c-0.92-0.09-2.07-0.21-3.38-0.21c-1.75,0-2.91,0.11-3.94,0.21c-0.76,0.07-1.41,0.13-2.14,0.13c-0.49,0-1.97,0-1.97-1.58
				c0-1.14,0.72-1.5,1.97-1.74c2.34-0.45,2.7-0.52,2.7-4.21V17.98c0-3.15-0.38-3.39-1.23-3.62c-0.49-0.13-0.93-0.21-1.31-0.28
				c-1.14-0.22-2.12-0.4-2.12-1.62c0-0.7,0.62-1.41,1.81-1.41c0.2,0,0.4,0.03,0.71,0.06c0.75,0.1,2.14,0.27,5.7,0.27
				c1.85,0,3.24-0.13,4.25-0.23c0.64-0.06,1.16-0.11,1.58-0.11c1.2,0,1.81,0.5,1.81,1.49c0,1.23-0.73,1.34-1.66,1.49
				c-0.42,0.07-0.94,0.15-1.61,0.33c-1.04,0.28-1.48,0.96-1.48,2.26V32.6c0,0.77,0.01,1.36,0.03,1.77c0.25-0.29,0.57-0.7,0.95-1.21
				c1.43-1.76,8.67-10.72,11.72-15.44c0.68-1.04,0.92-1.78,0.92-2.12c0-0.72-0.3-1.15-1.95-1.49c-1.32-0.24-2.46-0.44-2.46-1.65
				c0-0.65,0.54-1.41,2.06-1.41c0.67,0,1.56,0.07,2.51,0.15c1.1,0.09,2.34,0.19,3.41,0.19c1.39,0,2.71-0.12,3.78-0.22
				c0.72-0.07,1.31-0.12,1.72-0.12c0.55,0,2.22,0,2.22,1.41c0,1.17-0.84,1.28-1.72,1.4c-0.3,0.04-0.66,0.09-1.07,0.17
				c-1.72,0.38-4.66,3.17-9.22,8.76c-5.7,7.25-6.14,8.15-6.14,8.62c0,0.29,0.29,0.85,1.49,3.2c1.51,2.95,4.32,8.43,9.79,19.62
				c3.79,7.73,4.22,7.89,5.36,8.33c0.33,0.14,0.63,0.21,0.93,0.27c0.71,0.16,1.67,0.38,1.67,1.46
				C503.42,64.66,503.27,65.87,501.28,65.87z"/>
		</g>
		<g>
			<path class="st1" d="M521.43,65.87c-0.22,0-0.41-0.02-0.7-0.06c-0.71-0.1-2.03-0.28-6.22-0.28c-4.13,0-5.44,0.18-6.15,0.27
				c-0.3,0.04-0.51,0.07-0.76,0.07c-0.96,0-2.06,0-2.06-1.41c0-1.23,1.33-1.5,2.62-1.75c0.25-0.05,0.5-0.1,0.75-0.16
				c2.25-0.53,2.38-0.73,2.38-3.53V16.96c0-2.1-0.53-2.38-1.93-2.59c-0.67-0.1-1.22-0.16-1.67-0.21c-1.39-0.15-2.23-0.23-2.23-1.62
				c0-0.35,0.16-1.49,2.22-1.49c1.02,0,2.08,0.08,3.2,0.16c1.18,0.09,2.4,0.18,3.63,0.18c1.38,0,2.83-0.1,4.1-0.19
				c1.09-0.08,2.13-0.15,2.98-0.15c2.01,0,2.31,0.99,2.31,1.58c0,1.21-0.99,1.33-2.63,1.53c-0.45,0.05-0.99,0.12-1.61,0.21
				c-1.33,0.19-1.93,0.99-1.93,2.59V58.6c0,2.28,0.36,3.52,2.3,3.96c0.25,0.05,0.52,0.1,0.78,0.15c1.37,0.25,2.92,0.54,2.92,1.93
				C523.74,65.87,522.06,65.87,521.43,65.87z"/>
		</g>
		<g>
			<path class="st1" d="M562.07,67.4c-0.9,0-0.95-0.12-4.08-6.19c-1.82-3.53-4.86-9.44-9.83-18.79c-5.37-10.11-8.19-15.76-9.7-18.79
				c-1.08-2.16-1.67-3.36-1.88-3.48c-0.01,0.03-0.1,0.28-0.1,1.4v29.91c0,8.16,0.51,10.75,2.2,11.09c0.68,0.15,1.33,0.22,1.91,0.28
				c1.4,0.15,2.72,0.28,2.72,1.72c0,0.88-0.58,1.32-1.72,1.32c-0.34,0-0.59-0.04-0.94-0.09c-0.69-0.1-1.74-0.25-4.89-0.25
				c-2.64,0-4.05,0.14-5.09,0.24c-0.61,0.06-1.08,0.1-1.58,0.1c-0.87,0-1.39-0.49-1.39-1.32c0-1.12,1.6-1.46,2.89-1.73
				c0.4-0.08,0.78-0.16,1-0.24c1.15-0.43,1.61-1.69,1.61-4.48V18.58c0-3.04-0.35-4.02-1.52-4.21c-0.31-0.05-0.59-0.09-0.84-0.13
				c-1.44-0.21-2.39-0.35-2.39-1.7c0-0.68,0.4-1.49,2.31-1.49c0.9,0,2.13,0.05,3.28,0.09c0.98,0.04,1.89,0.08,2.47,0.08l1.69,0.09
				c1.25,0.09,1.75,1.23,2.38,2.68c0.18,0.41,0.37,0.86,0.6,1.32l11.91,23.28c4.4,8.6,6.4,12.4,7.08,13.38
				c0.01-0.12,0.02-0.28,0.02-0.51V20.19c0-5.07-1.18-5.64-2.5-5.82c-1.52-0.23-3.24-0.5-3.24-1.83c0-0.84,0.68-1.49,1.56-1.49
				c0.32,0,0.66,0.04,1.13,0.09c0.88,0.1,2.22,0.25,4.7,0.25c0.93,0,1.82-0.09,2.68-0.18c0.83-0.08,1.61-0.16,2.4-0.16
				c1.08,0,1.81,0.25,1.81,1.49c0,1.31-1.03,1.47-2.58,1.72l-0.65,0.11c-1.53,0.27-2.02,1.25-2.02,4.04v46.06
				C563.46,66.84,563.46,67.4,562.07,67.4z"/>
		</g>
		<g>
			<path class="st1" d="M584.97,66.89c-5.88,0-8.95-1.54-10-2.2c-1.4-0.91-1.72-1.92-1.72-9.66c0-5.85,0.18-6.59,1.64-6.59
				c1.32,0,1.46,0.75,1.6,1.48l0.03,0.18c1.88,9.42,5.12,13.81,10.2,13.81c5.13,0,8.85-4.59,8.85-10.91
				c0-7.12-5.13-10.49-10.55-14.05c-5.62-3.69-11.44-7.51-11.44-15.78c0-7.24,6.56-13.14,14.63-13.14c3.63,0,8.34,1.51,9.5,2.69
				c0.64,0.65,0.64,0.94,0.64,8.4c0,4.68,0,5.06-1.31,5.06c-1.23,0-1.41-1.07-1.58-2.11c-0.07-0.41-0.15-0.88-0.29-1.38
				c-1.84-6.61-4.47-9.68-8.29-9.68c-3.92,0-7.35,3.59-7.35,7.68c0,7.03,4.99,10.13,10.27,13.42c5.76,3.59,11.72,7.3,11.72,16.32
				C601.52,60.28,594.87,66.89,584.97,66.89z"/>
		</g>
	</g>
	<g>
		<path class="st1" d="M259.33,109.91h-5.21V97.27l-5.55,6.67h-0.76l-5.55-6.67v12.64h-5.21V89.24h4.58l6.55,7.85l6.64-7.85h4.52
			V109.91z"/>
		<path class="st1" d="M294.74,109.91h-15.25V89.24h15.04v3.85h-9.82v4.18h9.37v3.88h-9.37v4.97h10.03V109.91z"/>
		<path class="st1" d="M322.66,89.24c1.33,0,3.24,0,5.61,0.82c1.64,0.58,6.61,3.09,6.61,9.49c0,2.06-0.51,6.37-5.03,8.82
			c-1.97,1.06-3.97,1.55-7.58,1.55h-8.03V89.24H322.66z M319.45,93.18v12.79h2.09c2.88,0,3.7-0.24,4.55-0.61
			c2.09-0.91,3.46-2.91,3.46-5.85c0-2.24-0.82-4.7-3.49-5.79c-1.33-0.55-2.61-0.55-4-0.55H319.45z"/>
		<path class="st1" d="M359.28,109.91h-5.22V89.24h5.22V109.91z"/>
		<path class="st1" d="M398.36,108.13c-3.03,1.61-5.49,2.06-8.13,2.06c-8.03,0-12.04-5.25-12.04-10.55
			c0-5.21,4.09-10.67,12.49-10.67c3.76,0,6.37,1.18,7.43,1.82v4.76c-0.85-0.64-3.49-2.24-7.06-2.24c-4.31,0-7.49,2.49-7.49,6.28
			c0,4.06,3.46,6.34,7.34,6.34c1.94,0,3.76-0.55,5.49-1.42l1.97-1.12V108.13z"/>
		<path class="st1" d="M423.22,109.91H418V89.24h5.21V109.91z"/>
		<path class="st1" d="M464.23,109.91h-4.31L448.5,97.12v12.79h-5.12V89.24h4.7l11.07,12.19V89.24h5.09V109.91z"/>
		<path class="st1" d="M499.64,109.91h-15.25V89.24h15.04v3.85h-9.82v4.18h9.37v3.88h-9.37v4.97h10.03V109.91z"/>
	</g>
</g>
<g id="triangle">
</g>
<g id="filled_triangle_outside">
	<path class="st1" d="M120.3,104.22C116.41,61.2,93.56,23.66,60.18,0h-0.01C26.79,23.66,3.94,61.2,0.05,104.22l-0.05,0
		c39.2,18.14,83.13,17.13,120.32,0.05L120.3,104.22z"/>
</g>
<g id="yellow_fill">
	<path class="st3" d="M104.08,94.83c-2.47-27.35-21.63-60.64-43.89-76.42l0,0C38.61,33.7,18.53,68.03,16.09,94.96l0,0
		C40.33,106.18,81.42,105.23,104.08,94.83L104.08,94.83z"/>
	<path class="st4" d="M16.54,94.71c5.02-30.29,20.96-56.89,43.64-75.63L60.18,3.05C28.25,25.68,6.41,61.58,2.68,102.72L16.54,94.71z
		"/>
	<path class="st5" d="M16.56,94.69c28.74,10.79,59.75,10.29,87.32,0.02l13.87,8.02c-35.56,16.34-77.57,17.3-115.06-0.04L16.56,94.69
		z"/>
	<path class="st6" d="M103.83,94.71C98.8,64.42,82.86,37.81,60.19,19.08l0-16.03c31.93,22.63,53.77,58.53,57.49,99.67L103.83,94.71z
		"/>
</g>
<g id="dome_shape">
</g>
<g id="dome_shape_00000171706171599933711250000014979513693111392663_">
	<g>
		<g>
			<g>
				<polygon class="st5" points="38.52,89.94 81.87,89.94 81.87,95.75 38.52,95.75 38.52,89.94 				"/>
			</g>
		</g>
		<g>
			<g>
				<path class="st5" d="M61.11,39.85c1.16,0,2.12,0,2.12,0s0.45-2.68-1.64-3.42c-0.44-2.38-0.3-6.55-0.59-8.49
					c-0.09-0.92-0.45-1.75-0.84-1.76h0c-0.38,0.02-0.75,0.85-0.83,1.76c-0.3,1.94-0.15,6.1-0.6,8.49c-2.08,0.74-1.64,3.42-1.64,3.42
					s0.96,0,2.12,0H61.11z"/>
				<path class="st5" d="M57.28,64.23h-7.32c0.45-0.75,0.6-1.65,1.49-2.09c0.6-0.3,1.94-0.15,1.94-0.15c0.3-3.44-0.6-3.74,3.13-3.59
					c0-4.33,0-9.41,0-9.41c-3.73-1.5-2.84-5.98,0.3-6.58c0.15-0.15,0.15-1.04,0.3-1.04h1.78h2.48h1.78c0.15,0,0.15,0.9,0.3,1.04
					c3.14,0.6,4.03,5.08,0.3,6.58c0,0,0,5.08,0,9.41c3.73-0.15,2.84,0.15,3.13,3.59c0,0,1.35-0.15,1.95,0.15
					c0.89,0.45,1.04,1.34,1.49,2.09h-7.31H57.28z"/>
				<path class="st5" d="M48.5,65.58h6.42c-2.24,3.89-4.78,13.3-4.78,18.98c-1.05,0.3-1.79,2.09-1.49,3.29h-7.32
					c0-1.79-0.6-2.99-2.24-3.59C41.78,72.3,44.17,68.86,48.5,65.58L48.5,65.58z"/>
				<path class="st5" d="M71.82,65.58h-6.42c2.24,3.89,4.78,13.3,4.78,18.98c1.04,0.3,1.79,2.09,1.5,3.29h7.32
					c0-1.79,0.6-2.99,2.25-3.59C78.54,72.3,76.15,68.86,71.82,65.58L71.82,65.58z"/>
				<path class="st5" d="M61.24,87.84h4.24c0-2.34,1.33-3.29,2.53-3.44c0.3-4.03-0.3-10.91-4.33-18.83l0,0H61.6h-2.96h-2.06l0,0
					c-4.04,7.92-4.63,14.79-4.34,18.83c1.19,0.15,2.53,1.1,2.53,3.44H59H61.24z"/>
			</g>
		</g>
	</g>
</g>
</svg>
