<?xml version="1.0" encoding="utf-8"?>
<!-- Generator: Adobe Illustrator 19.2.1, SVG Export Plug-In . SVG Version: 6.00 Build 0)  -->
<svg version="1.1" id="Layer_1" xmlns="http://www.w3.org/2000/svg" xmlns:xlink="http://www.w3.org/1999/xlink" x="0px" y="0px"
	 viewBox="0 0 402 75.9" style="enable-background:new 0 0 402 75.9;" xml:space="preserve">
<style type="text/css">
	.st0{fill:#00529B;}
</style>
<g>
	<path d="M158.4,34h3.3v1.2h-18.8V34h3.2V8.1h-0.1l-9.3,27.2h-1.7l-9.5-27.5h-0.1v22.3c0,1.8,0.1,3.9,2.9,3.9h0.8v1.2h-8.6V34h0.8
		c2.3,0,2.6-2.4,2.6-3.8V4.5h-3.1V3.2H136l5.1,15.3l5.2-15.3h15.3v1.3h-3.3V34z"/>
	<path d="M172.6,25.8v1.9c0,3.7,0.6,6.6,4.5,6.6c3.1,0,5.9-2.2,7.6-4.9l0.8,0.6c-2.5,4-6,5.9-10.5,5.9c-2.4,0-4.6-0.2-6.8-1.2
		c-3.5-1.7-6.1-4.9-6.1-10.4c0-7.4,5.5-11.6,11.8-11.6c7.2,0,12.2,4.9,12.1,13.1H172.6z M176.1,24.7v-6.4c0-1.6,0.3-4.4-1.9-4.4
		c-1.9,0-1.7,3-1.7,4.4v6.4H176.1z"/>
	<path d="M187.3,14.5v-1.1c3.8,0,7.6-0.4,11.4-0.6v4.8c1.7-2.7,4.2-4.9,7.3-4.9c2.7,0,5.2,1.4,5.9,4.6c1.5-2.5,4.4-4.6,7.1-4.6
		c4.8,0,6.5,2.6,6.5,9.3v12.2h2.3v1.1h-13.2v-1.1h1.2V20.6c0-1.2,0.4-4.4-1.4-4.4c-1.3,0-2.1,2.3-2.1,4.4v13.5h1.2v1.1h-12.2v-1.1
		h1.2V20.4c0-2.3,0.1-4.2-1.3-4.2c-1.3,0-2.2,2.2-2.2,4.1v13.9h1.1v1.1h-13.1v-1.1h2.3V14.5H187.3z"/>
	<path d="M249.9,15.4c2.5,1.9,4.2,5.4,4.2,8.7c0,3.5-1.4,6.7-3.8,8.9c-2.4,2.2-5.9,3-9.2,3c-3.3,0-6.8-0.7-9.2-3
		c-2.4-2.2-3.8-5.5-3.8-8.9c0-3.3,1.7-6.8,4.2-8.7c2.4-1.9,5.6-2.6,8.8-2.6S247.6,13.5,249.9,15.4z M239.1,31.3c0,1.9,0,3.6,2.1,3.6
		c2.3,0,2-1.8,2-3.6V17.4c0-1.6,0-3.5-2-3.5c-2,0-2.1,1.9-2.1,3.5V31.3z"/>
	<path d="M255.7,14.5v-1.1c4,0,8-0.4,12-0.6v4.7h0.1c1.4-2.8,3.7-4.6,6.7-4.6c2.7,0,5.4,1.8,5.4,5.1c0,3.2-2,5.4-4.9,5.4
		c-2.8,0-4.7-2-4.7-5.1c0-0.7,0.1-1.5,0.2-2.2c-0.6-1.2-1.9,1.5-2,1.9c-0.6,1.8-0.5,3.5-0.5,5.4v10.6h3v1.1h-15.4v-1.1h2.2V14.5
		H255.7z"/>
	<path d="M281,35.3v-1.1h2.3V14.5h-2.2v-1.1c4.2,0,8.3-0.4,12.5-0.6v21.3h2.2v1.1H281z M293.9,6.6c0,3.4-3,4.5-5.6,4.5
		c-2.6,0-5.6-1.1-5.6-4.5c0-3.7,2.9-4.6,5.6-4.6C291.1,2,293.9,3,293.9,6.6z"/>
	<path d="M311.6,16.8c0-2.1-0.5-2.8-2.4-2.8c-0.7,0-1.7,0.1-1.7,0.5c0,0.6,1.5,1.2,1.5,3.2c0,3.2-3.3,3.7-5.5,3.7
		c-2,0-4.6-0.9-4.6-3.7c0-2,1-5,10.4-5c2.1,0,5.5,0.3,7.5,0.9c2.8,0.7,4.5,2,4.5,5.5v12.4c0,0.5,0.2,1.1,0.7,1.1
		c0.8,0,1.2-0.6,1.7-1.2v1.6c-1.6,2-4.2,2.9-6.5,2.9c-2.4,0-4.2-0.6-5.3-3.2c-2.1,2.5-5.1,3.2-8.1,3.2c-3.2,0-6.5-1.5-6.5-5.6
		c0-3.1,1.5-6.2,7.3-7.1c1.8-0.3,3-0.4,4.9-0.4h2V16.8z M311.6,24h-1.5c-2.6,0-2.3,3.3-2.3,5.4c0,1.3-0.1,3.8,1.6,3.8
		c2.3,0,2.2-2.9,2.2-4.6V24z"/>
	<path d="M324.9,35.3v-1.1h2.3V4.3h-2.4V3.2c4.2,0,8.3-0.6,12.5-0.7v31.7h2.3v1.1H324.9z"/>
	<path d="M121,65.6v-1.1h2.6v-23H121v-1.1h11.3v1.1h-2.9v10.6h7.7V41.4h-2.9v-1.1h11.6v1.1H143v23h2.9v1.1h-11.6v-1.1h2.9V53.2h-7.7
		v11.3h2.9v1.1H121z"/>
	<path d="M151.2,56.7v-3.6c0-1,0.6-1.7,2.1-1.7c1.7,0,2.4,0.6,2.4,1.6v3.7H151.2z M158.9,57.6c0.6,0,1.6,0.2,1.6-0.7
		c0-3.9-3.3-6.6-6.8-6.6c-4,0-8.2,2.8-8.2,8c0,5.2,3.9,7.8,8.3,7.8c3.3,0,5.9-1.6,6.8-5.1l-0.8-0.3c-0.8,3-3,4.4-5.7,4.4
		c-1.8,0-2.8-0.7-2.8-2.7v-4.9H158.9z"/>
	<path d="M171.8,61.8c0,1-0.8,2.2-2.4,2.2c-1.4,0-2-1.7-2-3c0-2.7,2.6-3,4.4-3.1V61.8z M171.8,57c-3.1,0.1-8.9,1.2-8.9,5.6
		c0,2.3,2.2,3.5,4.1,3.5c1.9,0,3.7-1.1,4.9-2.6c0.3,1.2,1.6,2.6,3.1,2.6c1.7,0,2.7-0.6,3.6-2.2l-0.6-0.7c-0.1,0.3-0.6,0.5-0.9,0.5
		c-1,0-1-0.9-1-1.7v-9.2c0-1.1-1.9-2.5-6.4-2.5c-2.2,0-5.9,1-5.9,4c0,1.4,1,2.3,2.2,2.3c1.5,0,2.2-1.1,2.2-2.7
		c0-0.3-0.2-0.6-0.3-0.9c-0.2-0.3-0.3-0.6-0.3-0.8c0-0.7,1.5-0.9,1.9-0.9c2.6,0,2.4,1.2,2.4,3.1V57z"/>
	<path d="M180.6,41.2h-2.4v-1.1h2.4c1.6,0,3.2-0.3,4.8-0.4v24.8h2.3v1.1h-9.2v-1.1h2.1V41.2z"/>
	<path d="M190.2,46.4h2.1c0.9,0,1.9-0.3,2.8-0.4v4.9h2.7V52H195v10.3c0,0.8-0.2,1.9,0.8,1.9c1.4,0,1.6-1.2,1.8-2.4l1,0.2
		c-0.6,3.1-2.5,4.2-5.2,4.2c-3.3,0-3.3-1.5-3.3-3.4V52h-2.1v-1.1h2.1V46.4z"/>
	<path d="M217.8,64.5v1.1H209v-1.1h1.8V53.3c0-0.9-0.8-1.3-1.5-1.3c-1.6,0-3.6,2.5-3.6,5.6v6.9h2v1.1H199v-1.1h1.9V41.2h-2.2v-1.1
		h2.2c1.6,0,3.2-0.3,4.8-0.4v14.6h0.1c1.3-2.5,2.9-4,5.7-4c3,0,4.1,1.5,4.1,4.6v9.6H217.8z"/>
	<path d="M232.2,61.3c-0.9,2.9-3.3,4.9-6.2,4.9c-3.8,0-7.9-3.3-7.9-7.7c0-4.7,3.8-8.1,8-8.1c3.8,0,5.5,2.7,5.5,4.1
		c0,1.6-1.1,2.6-2.4,2.6c-1.3,0-2.3-1.2-2.3-2.6c0-0.5,0.3-1.2,0.6-1.5c0.2-0.2,0.5-0.5,0.5-0.8c0-0.8-1.3-0.8-1.9-0.8
		c-1.5,0-2.6,0.5-2.6,4.1v4.9c0,3.9,0.5,4.9,2.7,4.9c2.7,0,4.2-1.7,5.2-4.4L232.2,61.3z"/>
	<path d="M242.8,61.8c0,1-0.8,2.2-2.4,2.2c-1.4,0-2-1.7-2-3c0-2.7,2.6-3,4.4-3.1V61.8z M242.8,57c-3.1,0.1-8.9,1.2-8.9,5.6
		c0,2.3,2.2,3.5,4.1,3.5c1.9,0,3.7-1.1,4.9-2.6c0.3,1.2,1.6,2.6,3.1,2.6c1.7,0,2.7-0.6,3.6-2.2l-0.6-0.7c-0.1,0.3-0.6,0.5-0.9,0.5
		c-1,0-1-0.9-1-1.7v-9.2c0-1.1-1.9-2.5-6.4-2.5c-2.2,0-5.9,1-5.9,4c0,1.4,1,2.3,2.2,2.3c1.5,0,2.2-1.1,2.2-2.7
		c0-0.3-0.2-0.6-0.4-0.9c-0.2-0.3-0.4-0.6-0.4-0.8c0-0.7,1.5-0.9,1.9-0.9c2.6,0,2.4,1.2,2.4,3.1V57z"/>
	<path d="M256.9,54.4L256.9,54.4c0.7-2.2,2.1-4.1,4.4-4.1c1.7,0,2.9,1.2,2.9,3.1c0,1.5-1.1,2.7-2.5,2.7c-1.2,0-2.2-0.9-2.2-2.3
		c0-0.7,0.2-1.1,0.4-1.7c0.1-0.3-0.8-0.7-2.1,2c-0.7,1.4-0.9,2-0.9,3.5v6.8h2.6v1.1h-9.2v-1.1h1.8V51.7h-1.9v-1.1h1.9
		c1.6,0,3.2-0.2,4.8-0.2V54.4z"/>
	<path d="M271.1,56.7v-3.6c0-1,0.6-1.7,2.1-1.7c1.7,0,2.4,0.6,2.4,1.6v3.7H271.1z M278.8,57.6c0.6,0,1.6,0.2,1.6-0.7
		c0-3.9-3.3-6.6-6.8-6.6c-4,0-8.2,2.8-8.2,8c0,5.2,3.9,7.8,8.3,7.8c3.3,0,5.9-1.6,6.8-5.1l-0.8-0.3c-0.8,3-3,4.4-5.7,4.4
		c-1.8,0-2.8-0.7-2.8-2.7v-4.9H278.8z"/>
	<path d="M306.5,40.3h1.1V47h-1.1c-0.5-3.1-3-6.1-6-6.1c-1.9,0-4.6,1.2-4.6,3.7c0,2.2,1.5,2.8,3.2,3.3c1.8,0.4,4.7,1.2,6.3,1.9
		c2.1,1,3.8,3,3.8,7.4c0,4.4-2.5,9-8.2,9c-1.8,0-3.4-0.6-4.8-1.8l-1.8,1.4h-1.3v-7.4h1.3c0.9,3.5,3.3,6.6,6.8,6.6
		c3.9,0,5.6-2.7,5.6-5.1c0-3.3-3.4-3.5-6.7-4.5c-3.4-0.9-6.8-2.5-6.8-8.2c0-4.3,3.4-7.6,7.3-7.6c1.7,0,3.3,0.7,4.7,1.7L306.5,40.3z"
		/>
	<path d="M309.8,50.6h8.4v1.1h-1.6l3.4,8.2h0.1l2.7-7c0.3-0.8-0.4-1.1-0.9-1.1h-1.3v-1.1h5.5v1.1H325c-0.7,0-1,1.2-1.3,1.9
		l-6.9,17.4c-0.7,1.8-1.9,3-3.4,3c-1.2,0-2.2-1.1-2.2-2.3c0-1.4,0.9-2.3,2-2.3c0.8,0,1.2,0.4,1.4,0.7c0.3,0.3,0.5,0.6,0.8,0.5
		c0.7-0.3,0.9-1.1,1.1-1.7l1.3-3.2l-6.5-14h-1.5V50.6z"/>
	<path d="M328.3,65.6h-0.9v-5.3h0.9c0.5,2.7,2.6,4.9,5.1,4.9c1.2,0,3.3-0.9,3.3-2.6c0-1.9-1.6-1.8-3-1.9c-3.1-0.3-6.4-1-6.4-5.2
		c0-3.2,2.2-5.1,5-5.1c1.3,0,2,0.4,3.2,0.8c0.3,0.1,0.8-0.4,1-0.8h0.7v4.4h-1c-0.7-2.3-1.6-3.4-4-3.4c-1.1,0-3.2,0.4-3.2,2
		c0,0.8,1.3,1.5,2.9,1.6c3.9,0.3,6.6,1.3,6.6,5.2c0,3-1.6,5.9-5.2,5.9c-1.4,0-2.9-0.5-4.1-1.4L328.3,65.6z"/>
	<path d="M342,46.4h2.1c0.9,0,1.9-0.3,2.8-0.4v4.9h2.7V52h-2.7v10.3c0,0.8-0.2,1.9,0.8,1.9c1.4,0,1.6-1.2,1.8-2.4l1,0.2
		c-0.6,3.1-2.5,4.2-5.2,4.2c-3.3,0-3.3-1.5-3.3-3.4V52h-2.1v-1.1h2.1V46.4z"/>
	<path d="M357.2,56.7v-3.6c0-1,0.6-1.7,2.1-1.7c1.7,0,2.4,0.6,2.4,1.6v3.7H357.2z M364.9,57.6c0.6,0,1.6,0.2,1.6-0.7
		c0-3.9-3.3-6.6-6.8-6.6c-4,0-8.2,2.8-8.2,8c0,5.2,3.9,7.8,8.3,7.8c3.3,0,5.9-1.6,6.8-5.1l-0.8-0.3c-0.8,3-3,4.4-5.7,4.4
		c-1.8,0-2.8-0.7-2.8-2.7v-4.9H364.9z"/>
	<path d="M374.6,54.1c1.1-2,2.9-3.7,5.2-3.7c2.1,0,3.9,1.1,4.3,3.6c1.3-2,3.3-3.6,5.7-3.6c1.8,0,4,0.8,4,3.1v11.1h2.3v1.1h-8.8v-1.1
		h1.8V54c0-1-0.1-2.1-1.4-2.1c-2,0-3.6,2.9-3.6,4.9v7.8h1.8v1.1h-8.3v-1.1h1.8v-9.4c0-2.5-0.2-3.2-1.5-3.2c-1.1,0-3.4,1.6-3.4,5v7.6
		h1.8v1.1H368v-1.1h1.9V51.7h-2.2v-1.1h2.2c1.6,0,3.1-0.2,4.7-0.2V54.1z"/>
	<path class="st0" d="M98.1,12V6.9h6.3V3.6H71.9L68.4,12H51l-3.1-8.4H14.7v3.3H21V12H6.1v1.7H21v5.6l-14.9,0v1.7l14.9,0v5.1H6.1v1.7
		H21v5.6H6.1v1.7H21v5.6h-15v1.7h15v5.9h-15v1.7h15V56H6.1v1.7H21v0c0,1-0.1,1.8-0.3,2.4c-0.2,0.4-0.4,0.7-0.6,1
		c-0.2,0.2-0.4,0.4-0.7,0.5c-0.4,0.2-1,0.4-1.7,0.5c-0.7,0.1-1.5,0.2-2.5,0.2h-0.9v3.3h17.5v-3.3H31c-1.1,0-2.1-0.1-2.8-0.2
		c-0.6-0.1-1-0.3-1.4-0.5c-0.3-0.2-0.5-0.3-0.7-0.5c-0.3-0.3-0.5-0.7-0.7-1.2c-0.2-0.5-0.2-1.2-0.2-2.1v0h17.6l3.2,7.9h5.2l3.2-7.9
		h17.8v4.6h-6.3v3.3h38.6v-3.3h-6.3v-4.6h16.2V56H98.1v-5.8h16.2v-1.7H98.1v-5.9h16.2v-1.7H98.1v-5.6h16.2v-1.7H98.1v-5.6h16.2v-1.7
		H98.1v-5.1h16.2v-1.7H98.1v-5.6h16.2V12H98.1z M59.3,33.5h-0.2L57,27.9h4.7L59.3,33.5z M25.2,19.3v-5.3l2.1,5.3H25.2z M28,21.1
		l2.1,5.1h-4.9v-5.1H28z M30.8,27.9l2.3,5.6h-7.8v-5.6H30.8z M33.8,35.3l2.3,5.6H25.2v-5.6H33.8z M61.1,40.9l2.3-5.6h8.8v5.6H61.1z
		 M64,33.5l2.3-5.6h5.8v5.6H64z M67,26.2l2.1-5.1h3.1v5.1H67z M69.7,19.3l2.3-5.6h0.1v5.6H69.7z M62.4,26.2h-6.1l-1.9-5.1h10.2
		L62.4,26.2z M25.2,42.6h11.5l2.4,5.9H25.2V42.6z M60.4,42.6h11.7v5.9H58.1L60.4,42.6z M65.3,19.3H53.8l-2.1-5.6h16L65.3,19.3z
		 M25.2,50.2h14.6l2.3,5.8H25.2V50.2z M57.4,50.2h14.8V56H55L57.4,50.2z"/>
</g>
</svg>
