<?xml version="1.0" standalone="no"?>
<svg viewBox="0 0 200 200" xmlns="http://www.w3.org/2000/svg">
  <path fill="#6C63FF" d="M34.1,-58.7C45.2,-52.7,55.7,-45.5,61.1,-35.5C66.4,-25.5,66.6,-12.8,67.6,0.6C68.7,14,70.7,28,62.1,32.3C53.4,36.6,34.2,31.2,22.1,40.2C10,49.2,5,72.5,-1.4,75C-7.8,77.4,-15.6,58.9,-28.6,50.5C-41.6,42,-59.9,43.6,-68.7,36.8C-77.6,30.1,-77,15,-70.5,3.8C-63.9,-7.5,-51.4,-15,-46.1,-27.9C-40.9,-40.9,-42.9,-59.3,-36.4,-67.9C-29.9,-76.6,-15,-75.5,-1.7,-72.5C11.5,-69.5,23,-64.7,34.1,-58.7Z" transform="translate(100 100)" />
</svg>
