<?xml version="1.0" encoding="UTF-8"?>
<svg id="Capa_2" data-name="Capa 2" xmlns="http://www.w3.org/2000/svg" xmlns:xlink="http://www.w3.org/1999/xlink" viewBox="0 0 442.58 372.38">
  <defs>
    <style>
      .cls-1 {
        fill: url(#Degradado_sin_nombre_27);
      }

      .cls-1, .cls-2, .cls-3 {
        stroke-width: 0px;
      }

      .cls-4 {
        filter: url(#drop-shadow-1);
      }

      .cls-5 {
        fill: none;
        stroke: #fff;
        stroke-miterlimit: 10;
        stroke-width: 16px;
      }

      .cls-2 {
        fill: #fff;
      }

      .cls-3 {
        fill: #0071bc;
      }
    </style>
    <filter id="drop-shadow-1" filterUnits="userSpaceOnUse">
      <feOffset dx="7" dy="7"/>
      <feGaussianBlur result="blur" stdDeviation="15"/>
      <feFlood flood-color="#001b4c" flood-opacity=".75"/>
      <feComposite in2="blur" operator="in"/>
      <feComposite in="SourceGraphic"/>
    </filter>
    <linearGradient id="Degradado_sin_nombre_27" data-name="Degradado sin nombre 27" x1="266.21" y1="15.3" x2="266.21" y2="217.38" gradientUnits="userSpaceOnUse">
      <stop offset="0" stop-color="#0071bc"/>
      <stop offset="1" stop-color="#161559"/>
    </linearGradient>
  </defs>
  <g id="Capa_1-2" data-name="Capa 1">
    <g class="cls-4">
      <path class="cls-5" d="M427.49,12.23c-.18-.12-.37-.24-.55-.37-.12-.09-.23-.16-.32-.22l-9.13,4.86,9.09-4.89c-.47-.31-.65-.34-1.29-.8-.19-.13-1.12-.82-1.27-.98h0l-2.17-1.32-26.72,6.01c-.26.04,1.75-.09,1.48-.05-.01.03-2.31.21-2.32.24l-75.38,16.96c-.53.12-1.05.24-1.58.36L26.25,97.51l9.42,3.93c6.66,2.96,13.55,5.83,20.44,8.7.68.29,1.15.57,2.59.98,9.28,3.55,18.56,7.09,27.83,10.66,6.44,2.48,12.85,5.03,19.29,7.5,1.72.66,2.8,1.79,3.58,3.47.13.28.26.55.39.83l-.27.11c.72,1.54,3.3,7.07,4.02,8.61,9.33,20.02,17.17,36.14,26.23,55.53.78,1.68,1.56,3.35,2.34,5.02.05.1.09.2.14.29,0,0,0,0,0,.01,2.66,5.74,5.27,11.54,8.04,17.22.88,1.81,2.25,1.74,3.82.21,9.72-9.56,19.89-18.65,29.23-28.6l-.18-.38c1.33-1.19,1.95-.43,2.87.95,8.03,12.11,16.11,24.19,24.2,36.26,1.82,2.72,2.4,2.72,4.6.38,19.68-20.95,39.8-41.46,59.94-61.97,19.21-19.57,38.25-39.32,57.42-58.93,5.11-5.23,10.26-10.42,15.41-15.6h0c5.03-5.07,10.07-10.13,15.09-15.21.48-.49,1.02-.89,1.57-1.27l64.71-63.08c-.12-.06-1.48-.76-1.44-.9Z"/>
      <g>
        <path class="cls-2" d="M315.26,266.41c-4.83,6.27-9.53,12.37-14.21,18.44-2.04-1.78-3.82-3.74-5.97-5.14-11.5-7.49-26.87-3.53-33.7,8.71-3.82,6.84-5.78,14.18-4.3,22.07,1.52,8.11,7.51,13.33,15.74,13.92,4.87.35,9.61-.3,14.12-2.21.75-.32,1.66-1.09,1.83-1.8.74-3.21,1.24-6.48,1.9-10.15h-16.02c.58-4.07,1.08-7.72,1.62-11.36.28-1.87.67-3.73.9-5.6.15-1.22.6-1.81,1.93-1.81,11.44.01,22.89-.02,34.33-.04.22,0,.45.12,1,.28-.54,3.6-1.04,7.23-1.63,10.85-2.14,13.07-4.35,26.14-6.42,39.22-.36,2.27-1.18,3.16-3.6,3.02-3.78-.22-7.57-.02-11.36-.03-1.08,0-2.16-.12-3.31-.19-.05-1.16-.09-2.08-.14-2.98-3.71,1.02-7.27,2.41-10.95,2.93-13.47,1.93-25.25-1.16-33.91-12.46-5.61-7.33-7.9-15.77-7.59-24.86.59-17.87,7.22-32.96,21.98-43.57,16.13-11.6,38.73-11.26,54.86.24,1.01.72,1.88,1.62,2.9,2.5Z"/>
        <path class="cls-2" d="M333.72,268.82c.73,1.01,1.34,1.73,1.81,2.53,2.79,4.77,5.53,9.56,8.32,14.33.68,1.16.8,1.98-.02,3.35-4.16,6.89-5.57,14.35-3.78,22.28,2.05,9.08,10.52,14.31,20.23,12.88,7.03-1.03,12.07-4.81,15.79-10.56,4.6-7.1,5.89-15,4.38-23.18-2.08-11.29-12.11-16.86-23.38-13.17-2.08.68-3.08.38-4.1-1.49-2.72-4.97-5.61-9.84-8.76-15.31,3.48-1.23,6.49-2.54,9.63-3.36,7.85-2.04,15.81-2.34,23.57.29,14.43,4.89,22.35,15.47,24.03,30.24,1.93,17.02-2.9,32.21-14.93,44.73-12.89,13.41-34.53,16.96-50.41,8.23-9.44-5.19-14.75-13.64-16.5-23.94-2.97-17.42.84-33.24,12.85-46.67.31-.34.67-.63,1.28-1.2Z"/>
        <path class="cls-2" d="M149.05,349.91c1.63.78,3.04,1.45,4.45,2.12,3.69,1.75,7.55,2.68,11.65,2.7,5,.03,8.68-2.01,10.79-6.61,2.01-4.37,4.01-8.75,5.93-13.16,1.82-4.2,3.64-8.4,5.2-12.7.49-1.33.59-3.12.12-4.44-6.8-19.44-13.72-38.83-20.62-58.23-.23-.65-.44-1.31-.78-2.29,1.12-.06,2.02-.16,2.92-.16,5.92-.02,11.84-.01,17.76-.04,1.2,0,2.02.19,2.44,1.61,3.87,13.16,7.82,26.29,11.8,39.63.63-1.09,1.31-2.18,1.91-3.32,6.29-12.02,12.58-24.04,18.81-36.1.66-1.27,1.35-1.85,2.85-1.83,6.47.08,12.95.03,19.42.05.45,0,.9.11,1.69.2-.37.78-.6,1.4-.93,1.98-10.49,18.54-21.23,36.94-31.41,55.65-6.67,12.25-12.53,24.94-18.75,37.44-.53,1.06-1.1,2.1-1.57,3.18-6.03,13.74-18.28,17.43-31.09,16.71-6.52-.37-12.46-2.72-17.96-6.15-.58-.36-1.34-1.48-1.16-1.88,2.05-4.76,4.26-9.45,6.53-14.35Z"/>
        <path class="cls-2" d="M130.51,257.48c-1.13,6.55-2.24,13.05-3.41,19.85-.94,0-1.79,0-2.63,0-8.68,0-17.36.08-26.04-.04-2.04-.03-2.75.65-2.98,2.59-.41,3.52-1.06,7-1.66,10.86h27.49c-.41,2.92-.73,5.47-1.14,8-.57,3.5-1.34,6.97-1.8,10.48-.25,1.98-1.02,2.61-3.02,2.57-7.34-.14-14.68-.04-22.01-.16-1.99-.03-2.8.37-3.12,2.59-1.38,9.43-3.03,18.83-4.69,28.22-.15.83-1.13,2.16-1.75,2.17-6.13.16-12.27.1-18.72.1.06-1.08.03-2,.17-2.89,4.02-25.63,8.05-51.25,12.08-76.87.32-2.03.49-4.08.98-6.06.17-.67,1.12-1.64,1.72-1.64,16.49-.1,32.98-.09,49.47-.09.29,0,.58.17,1.07.33Z"/>
        <path class="cls-2" d="M158.25,257.55c-3.64,21.85-7.29,43.73-10.98,65.86h27.56c-.57,3.31-1.07,6.37-1.61,9.41-.58,3.26-1.2,6.51-1.79,9.77-.21,1.16-.51,2.06-2.03,2.06-14.76-.03-29.51,0-44.27,0-.22,0-.44-.12-1.04-.29.58-3.76,1.16-7.53,1.75-11.3,3.32-21.19,6.64-42.38,9.96-63.58.55-3.51,1.01-7.03,1.68-10.51.13-.68,1.03-1.73,1.6-1.74,6.07-.12,12.15-.06,18.23-.03.22,0,.43.16.94.36Z"/>
        <path class="cls-2" d="M359.12,308.23c-3.79.02-6.55-2.74-6.59-6.56-.04-4.68,4.2-9.04,8.84-9.09,3.84-.04,6.55,2.67,6.58,6.55.03,4.7-4.22,9.08-8.83,9.1Z"/>
      </g>
      <g>
        <path class="cls-2" d="M67.76,101.09c1.59.25,81.72,52.77,81.72,52.77l15.49,31.65,37.71-1.35L393.92,36.7l-15.03-10.85-71.99,12.42-239.14,62.82Z"/>
        <g>
          <path class="cls-3" d="M419.28,16.03c-.18-.11-.35-.23-.53-.36-.75-.55-.84-.46-1.58-1.01-.18-.13-1.07-.79-1.22-.94-6.74,1.61-18.39,3.15-28.53,4.62-.28.65-.83,1.19-1.71,1.45-4.83,1.43-9.86,2.23-14.74,3.51-4.8,1.26-9.65,2.39-14.39,3.85-4.53,1.4-8.95,3.15-13.64,3.95-4.56.78-9.36,1.01-13.63,2.95-1.71.77-3.3-.21-3.93-1.52-14.77,2.8-29.26,6.85-43.96,9.96-18.29,3.87-36.45,8.34-54.69,12.46-16.78,3.79-33.58,7.46-50.31,11.45-14.42,3.44-28.93,6.54-43.37,9.92-12.29,2.87-24.53,5.96-36.82,8.87-9.59,2.27-18.11,4.43-27.73,6.61-.27.06-.55.13-.82.2-.2.26-1.53.56-1.89.71-10.06,4.15-15.58,5.81-23.08,9.03,6.4,2.84,13.02,5.6,19.64,8.36.66.27,1.1.55,2.49.94,8.92,3.41,17.83,6.82,26.74,10.24,6.19,2.38,12.35,4.83,18.54,7.21,1.66.64,2.69,1.72,3.44,3.33,10.45,22.47,21,44.89,31.42,67.37,2.56,5.51,5.21,10.97,7.88,16.43.85,1.74,1.6,2.09,3.1.62,9.34-9.18,19.12-17.93,28.09-27.49,1.54-1.65,2.17-.9,3.13.55,7.72,11.64,15.48,23.25,23.26,34.85,1.75,2.61,2.31,2.62,4.42.36,18.91-20.13,38.25-39.85,57.6-59.56,18.47-18.81,36.76-37.79,55.19-56.64,4.91-5.02,9.86-10.01,14.81-15h0c4.84-4.87,9.68-9.73,14.5-14.62.46-.47.98-.85,1.51-1.22l60.89-61.2c-.11-.06-.13-.16-.09-.29ZM313.13,39.29c-58.13,15.36-115.96,31.9-174.87,44.28,57.81-16.59,116.19-31.03,174.87-44.28ZM130.97,112.12c-1.72.61-3.26.54-5.03.07-12.13-3.21-24.47-5.5-36.82-7.66-4.64-.81-9.24-1.89-13.83-3.11,4.74.54,9.46,1.2,14.21,1.58,10.48.84,20.76,3.02,31.13,4.63.62.1,1.31.11,1.84.39,4.44,2.35,8.75,1.32,13.22-.08,11.59-3.64,23.25-7.06,34.88-10.57,1.05-.32,2.1-.66,3.15-1,.06.11.13.23.19.34-3.3,1.27-6.57,2.61-9.9,3.79-11,3.9-22.04,7.71-33.04,11.62ZM371.24,43.63c-17.19,9.68-34.46,19.2-51.56,29.05-16.35,9.42-33.35,17.58-50.05,26.32-20,10.46-40.06,20.8-59.76,31.8-7.09,3.96-14.02,8.23-20.73,12.82-4.84,3.32-5.87,7.5-3.08,12.62,4.04,7.41,8.15,14.79,11.67,22.47.34.75.89,1.46.72,2.75-4.12-6.43-8.34-12.41-11.99-18.76-2.04-3.56-4.18-7.06-6.3-10.57-.94-1.56-.79-2.84.44-4.27,3.75-4.34,8.82-6.85,13.5-9.88,9.53-6.18,19.12-12.27,28.67-18.41.37-.24.88-.44.69-1.27-20.3,8.78-39.66,19.45-59.9,28.24,71.18-36.47,143.39-70.89,214.45-107.6.11.2.21.4.32.6-2.36,1.37-4.71,2.76-7.09,4.1Z"/>
          <polyline class="cls-3" points="110.12 128.52 409.58 13.72 413.86 12.45 415.95 13.72 402.27 17.42"/>
          <polygon class="cls-3" points="33.66 97.98 413.86 12.45 406.13 16.32 51.87 100.19 42.71 101.76 33.66 97.98"/>
        </g>
        <path class="cls-1" d="M113.67,132.75c.69,1.48,3.17,6.79,3.86,8.28,9.77,20.98,17.85,37.5,27.59,58.49,2.56,5.51,5.06,11.1,7.73,16.55.85,1.74,2.17,1.68,3.67.2,9.34-9.18,19.12-17.93,28.09-27.49l-20.49-42.25L418.75,15.3"/>
      </g>
    </g>
  </g>
</svg>