<?xml version="1.0" encoding="UTF-8"?>
<svg id="Capa_2" data-name="Capa 2" xmlns="http://www.w3.org/2000/svg" xmlns:xlink="http://www.w3.org/1999/xlink" viewBox="0 0 397 370.46">
  <defs>
    <style>
      .cls-1 {
        fill: url(#Degradado_sin_nombre_95);
      }

      .cls-1, .cls-2, .cls-3 {
        stroke-width: 0px;
      }

      .cls-2 {
        fill: #1a1a1a;
      }

      .cls-3 {
        fill: #000;
      }
    </style>
    <linearGradient id="Degradado_sin_nombre_95" data-name="Degradado sin nombre 95" x1="394.37" y1="-.51" x2="99.62" y2="169.66" gradientUnits="userSpaceOnUse">
      <stop offset="0" stop-color="#ccc"/>
      <stop offset=".1" stop-color="#c3c3c3"/>
      <stop offset=".26" stop-color="#acacac"/>
      <stop offset=".46" stop-color="#868686"/>
      <stop offset=".69" stop-color="#525252"/>
      <stop offset=".94" stop-color="#0f0f0f"/>
      <stop offset="1" stop-color="#000"/>
    </linearGradient>
  </defs>
  <g id="Capa_1-2" data-name="Capa 1">
    <g>
      <path class="cls-2" d="M289.84,261.38c-4.97,6.45-9.81,12.73-14.62,18.97-2.1-1.83-3.93-3.85-6.14-5.29-11.83-7.71-27.66-3.64-34.69,8.96-3.93,7.04-5.95,14.6-4.42,22.72,1.57,8.35,7.73,13.72,16.2,14.33,5.01.36,9.89-.31,14.54-2.27.77-.33,1.71-1.12,1.88-1.86.76-3.31,1.27-6.67,1.95-10.45h-16.49c.6-4.19,1.12-7.94,1.67-11.69.28-1.93.69-3.84.92-5.77.15-1.25.62-1.86,1.98-1.86,11.78.01,23.56-.02,35.34-.04.23,0,.46.12,1.03.29-.55,3.71-1.07,7.45-1.68,11.17-2.2,13.46-4.47,26.9-6.61,40.37-.37,2.34-1.21,3.26-3.7,3.11-3.89-.22-7.8-.02-11.69-.03-1.11,0-2.22-.12-3.41-.19-.05-1.2-.1-2.14-.14-3.06-3.81,1.05-7.48,2.48-11.27,3.02-13.87,1.98-25.99-1.19-34.9-12.83-5.78-7.54-8.13-16.23-7.82-25.59.61-18.4,7.44-33.93,22.62-44.84,16.6-11.94,39.86-11.59,56.47.25,1.04.74,1.94,1.67,2.98,2.58Z"/>
      <path class="cls-2" d="M308.84,263.87c.75,1.04,1.38,1.78,1.86,2.6,2.87,4.91,5.69,9.84,8.56,14.75.7,1.19.82,2.04-.02,3.45-4.28,7.09-5.73,14.77-3.89,22.93,2.11,9.34,10.83,14.73,20.82,13.26,7.23-1.06,12.42-4.96,16.25-10.87,4.73-7.31,6.06-15.44,4.51-23.86-2.14-11.62-12.46-17.35-24.06-13.55-2.14.7-3.17.39-4.22-1.53-2.8-5.11-5.78-10.13-9.01-15.75,3.58-1.27,6.68-2.62,9.91-3.45,8.08-2.1,16.28-2.41,24.26.3,14.85,5.04,23,15.92,24.73,31.13,1.99,17.52-2.98,33.16-15.37,46.04-13.27,13.81-35.54,17.45-51.88,8.47-9.71-5.34-15.18-14.04-16.99-24.64-3.06-17.93.87-34.21,13.23-48.03.32-.35.69-.65,1.31-1.23Z"/>
      <path class="cls-2" d="M118.76,347.33c1.68.8,3.13,1.49,4.58,2.18,3.79,1.81,7.77,2.76,11.99,2.78,5.15.03,8.93-2.07,11.1-6.8,2.07-4.5,4.13-9,6.1-13.55,1.87-4.32,3.74-8.65,5.35-13.07.5-1.37.6-3.21.13-4.57-7-20-14.13-39.96-21.22-59.93-.24-.67-.46-1.35-.8-2.36,1.15-.07,2.08-.16,3-.17,6.09-.02,12.19-.01,18.28-.04,1.23,0,2.08.19,2.51,1.65,3.98,13.54,8.05,27.06,12.15,40.79.65-1.12,1.35-2.24,1.97-3.41,6.47-12.37,12.95-24.75,19.36-37.15.68-1.31,1.39-1.91,2.93-1.89,6.66.09,13.32.03,19.99.05.47,0,.93.11,1.74.21-.38.81-.62,1.44-.96,2.03-10.8,19.08-21.85,38.02-32.33,57.28-6.86,12.61-12.9,25.67-19.3,38.53-.54,1.09-1.13,2.16-1.62,3.28-6.2,14.14-18.81,17.94-32,17.2-6.71-.38-12.82-2.8-18.48-6.33-.6-.38-1.38-1.52-1.2-1.94,2.11-4.9,4.39-9.72,6.72-14.77Z"/>
      <path class="cls-2" d="M99.68,252.2c-1.16,6.74-2.31,13.43-3.51,20.43-.97,0-1.84,0-2.7,0-8.93,0-17.87.08-26.8-.04-2.1-.03-2.83.67-3.07,2.66-.43,3.62-1.09,7.21-1.71,11.18h28.29c-.42,3-.75,5.63-1.18,8.23-.59,3.6-1.38,7.17-1.85,10.79-.26,2.04-1.05,2.68-3.11,2.64-7.55-.14-15.11-.04-22.66-.17-2.04-.03-2.88.38-3.21,2.67-1.42,9.71-3.12,19.38-4.83,29.05-.15.86-1.16,2.22-1.8,2.24-6.31.17-12.63.1-19.26.1.06-1.12.03-2.06.17-2.97,4.13-26.38,8.29-52.75,12.43-79.12.33-2.08.5-4.2,1.01-6.24.17-.69,1.15-1.69,1.77-1.69,16.97-.1,33.95-.1,50.92-.09.3,0,.6.18,1.1.34Z"/>
      <path class="cls-2" d="M128.24,252.27c-3.75,22.49-7.5,45.01-11.3,67.79h28.37c-.58,3.41-1.1,6.55-1.66,9.69-.6,3.36-1.23,6.7-1.84,10.06-.22,1.19-.53,2.12-2.09,2.12-15.19-.03-30.38,0-45.57,0-.23,0-.46-.12-1.07-.3.6-3.87,1.19-7.75,1.8-11.63,3.42-21.81,6.84-43.62,10.25-65.44.57-3.61,1.04-7.23,1.73-10.82.14-.7,1.06-1.78,1.64-1.79,6.25-.12,12.51-.06,18.76-.04.22,0,.44.16.97.37Z"/>
      <path class="cls-2" d="M334.98,304.43c-3.9.02-6.75-2.82-6.78-6.75-.04-4.82,4.32-9.31,9.1-9.35,3.95-.04,6.74,2.74,6.77,6.74.03,4.84-4.34,9.34-9.09,9.37Z"/>
    </g>
    <g>
      <path class="cls-3" d="M396.9,3.68c-.18-.12-.36-.24-.54-.37-.77-.56-.86-.48-1.63-1.04-.18-.13-1.1-.81-1.26-.97-6.94,1.65-18.93,3.24-29.36,4.76-.29.67-.86,1.23-1.76,1.49-4.97,1.47-10.15,2.29-15.17,3.61-4.94,1.3-9.93,2.46-14.81,3.96-4.66,1.44-9.21,3.24-14.04,4.06-4.69.8-9.64,1.04-14.03,3.03-1.76.8-3.4-.21-4.05-1.56-15.2,2.88-30.11,7.05-45.25,10.25-18.82,3.99-37.52,8.59-56.29,12.82-17.27,3.9-34.56,7.68-51.78,11.79-14.85,3.55-29.78,6.73-44.64,10.21-12.65,2.96-25.25,6.14-37.9,9.13-9.87,2.34-18.64,4.56-28.54,6.81-.28.06-.56.14-.84.21-.2.27-1.58.58-1.95.73-10.36,4.27-16.04,5.98-23.76,9.3,6.59,2.93,13.4,5.77,20.22,8.61.68.28,1.14.57,2.56.97,9.18,3.51,18.36,7.02,27.52,10.54,6.37,2.45,12.71,4.97,19.08,7.42,1.7.65,2.77,1.77,3.54,3.43,10.76,23.12,21.61,46.21,32.34,69.35,2.63,5.67,5.37,11.29,8.11,16.91.87,1.79,1.65,2.15,3.19.63,9.61-9.45,20.38-18.71,29.61-28.55,1.59-1.69,1.53-.67,2.52.82,7.94,11.98,15.94,23.93,23.94,35.87,1.8,2.69,2.37,2.7,4.55.38,19.46-20.72,39.37-41.02,59.29-61.3,19.01-19.36,37.83-38.9,56.8-58.3,5.06-5.17,10.15-10.31,15.25-15.44h0c4.98-5.01,9.96-10.02,14.92-15.05.47-.48,1.01-.88,1.55-1.25L397,3.98c-.12-.06-.14-.17-.1-.3ZM287.65,27.63c-59.83,15.81-119.36,32.83-179.98,45.58,59.51-17.08,119.59-31.94,179.98-45.58ZM100.16,102.58c-1.77.63-3.36.55-5.18.07-12.49-3.31-25.18-5.66-37.9-7.89-4.78-.84-9.51-1.95-14.24-3.2,4.87.55,9.74,1.23,14.62,1.63,10.79.87,21.37,3.11,32.04,4.76.64.1,1.35.12,1.9.41,4.57,2.42,9.01,1.36,13.61-.08,11.93-3.75,23.93-7.26,35.9-10.88,1.08-.33,2.16-.68,3.24-1.03.07.12.13.23.2.35-3.39,1.3-6.76,2.68-10.19,3.9-11.33,4.01-22.68,7.94-34,11.96ZM347.46,32.09c-17.69,9.96-35.47,19.76-53.06,29.9-16.83,9.69-34.32,18.1-51.51,27.09-20.58,10.77-41.23,21.41-61.51,32.73-7.3,4.07-14.43,8.47-21.34,13.2-4.98,3.41-6.04,7.72-3.17,12.99,4.15,7.63,8.39,15.22,12.01,23.12.35.77.92,1.5.74,2.83-4.24-6.62-8.58-12.77-12.34-19.31-2.1-3.66-4.3-7.27-6.48-10.88-.97-1.6-.81-2.93.45-4.39,3.86-4.47,9.08-7.05,13.89-10.17,9.81-6.36,19.68-12.63,29.51-18.95.38-.25.91-.45.71-1.31-20.9,9.03-40.82,20.02-61.66,29.06,73.27-37.54,147.58-72.96,220.72-110.75.11.2.22.41.32.61-2.43,1.41-4.85,2.84-7.3,4.22Z"/>
      <polyline class="cls-3" points="78.7 119.46 386.92 1.3 391.32 0 393.47 1.3 379.39 5.11"/>
      <polygon class="cls-3" points="0 88.03 391.32 0 383.37 3.98 18.74 90.3 9.31 91.92 0 88.03"/>
    </g>
    <path class="cls-1" d="M82.35,123.81c.71,1.53,3.26,6.99,3.98,8.52,10.06,21.59,18.37,38.59,28.4,60.2,2.63,5.67,5.21,11.42,7.95,17.04.87,1.79,2.23,1.72,3.78.2,9.61-9.45,19.81-18.71,29.05-28.55l-21.23-43.22L396.36,2.93"/>
  </g>
</svg>